PathFileType	4	(X/Y/Z)	C:/Users/beibeiliu/ov580/test_trc/User1\sequence.23_training_dense_right.trc
DataRate	CameraRate	NumFrames	NumMarkers	Units	OrigDataRate	OrigDataStartFrame	OrigNumFrames
120	120	8	19	mm	120	53	79
Frame#	Time	ThumbCMC			ThumbMCP			ThumbIP			ThumbTip			IndexMCP			IndexPIP			IndexTip			MiddleMCP			MiddlePIP			MiddleTip			RingMCP			RingPIP			RingTip			PinkyMCP			PinkyPIP			PinkyTip			BackHand1			BackHand2			BackHand3	
		X0	Y0	Z0	X1	Y1	Z1	X2	Y2	Z2	X3	Y3	Z3	X4	Y4	Z4	X5	Y5	Z5	X6	Y6	Z6	X7	Y7	Z7	X8	Y8	Z8	X9	Y9	Z9	X10	Y10	Z10	X11	Y11	Z11	X12	Y12	Z12	X13	Y13	Z13	X14	Y14	Z14	X15	Y15	Z15	X16	Y16	Z16	X17	Y17	Z17	X18	Y18	Z18	
52	0.433333	159.857	43.9542	93.4545	142.892	27.2167	65.7124	133.722	23.3677	41.5268	121.144	14.7956	22.3799	185.4	93.5288	26.105	185.591	102.37	-1.65015	189.62	95.8173	-32.2408	210.962	94.871	19.9838	206.353	100.702	-10.6811	203.294	84.7945	-43.8189	227.355	81.7393	20.1416	225.855	87.5658	-9.84993	220.789	78.0063	-38.8585	239.907	57.3079	28.6425	239.084	63.3637	5.42646	232.596	68.9587	-19.2887	231.179	62.6511	73.9023	230.694	50.3263	107.71	199.642	67.3562	94.3137	
53	0.441667	147.068	27.8144	96.8231	130.864	6.77886	72.2132	122.099	-1.45216	50.4259	110.173	-11.8607	26.8722	160.076	73.8114	27.2823	162.792	79.7195	-0.823962	164.756	72.4009	-29.7908	181.876	79.7518	18.6002	181.008	81.5118	-18.4213	179.498	63.1984	-45.1591	206.106	71.7047	16.9868	202.564	74.0386	-12.0087	192.742	60.0006	-39.6599	223.857	49.806	28.2739	222.927	52.6913	5.41259	210.412	56.9116	-18.0243	212.004	58.0943	75.6162	214.813	51.0475	106.619	177.268	60.7804	94.3533	
54	0.45	136.102	24.0297	101.8	119.19	2.35137	81.2075	104.168	-7.31036	57.4073	92.9957	-19.618	43.8469	144.479	58.806	21.578	142.142	58.5248	-8.30722	142.622	46.8625	-31.191	165.272	61.0865	12.3173	159.841	55.0961	-22.1046	152.631	34.4561	-43.2421	184.301	51.1402	13.3839	182.658	47.7191	-15.9887	172.336	31.1655	-37.1263	202.66	32.0196	23.6116	197.397	30.0019	1.98771	186.874	29.0217	-23.8852	193.97	47.3478	70.3529	203.312	44.4068	104.624	163.903	55.6872	90.6132	
55	0.458333	125.313	39.7296	105.434	98.6418	23.8106	87.4142	79.7502	15.999	72.9045	63.7835	5.23387	54.2852	133.01	54.6691	21.9081	130.804	46.8565	-6.27224	123.766	33.0662	-27.1125	154.915	45.7765	10.7964	144.047	37.1237	-19.5936	126.279	11.6622	-39.1155	171.642	28.4432	14.4685	155.646	23.9163	-16.5268	144.435	4.03222	-33.869	179.713	9.43656	28.4416	172.278	4.63551	4.1618	155.998	6.97998	-15.384	185.27	34.5824	67.8569	193.919	33.4827	102.729	158.496	56.615	89.5151	
56	0.466667	129.047	60.2255	103.968	94.3206	55.5731	92.5961	73.8502	54.7698	76.5118	51.9834	50.5477	64.6482	133.115	53.1856	19.0226	123.337	47.9476	-4.4699	106.059	33.4542	-25.8332	146.473	35.4628	9.86936	131.148	26.3451	-16.8049	100.998	12.8833	-30.7219	151.532	16.0581	16.0664	136.614	6.59228	-13.1891	113.324	-4.29103	-24.24	152.236	-3.28816	31.6883	142.403	-10.0903	10.6523	124.843	-9.63184	-9.38899	174.72	18.8608	68.7134	186.928	21.4432	98.9027	165.533	52.14	83.6867	
57	0.475	145.545	69.7969	97.5433	110.459	80.5238	85.5079	87.1917	87.888	71.1869	69.2406	87.5901	64.0612	139.293	51.4824	14.7447	124.557	42.1527	-9.85783	100.077	34.2509	-25.8274	140.702	22.8854	7.54919	118.889	20.4448	-19.8711	87.1794	17.1345	-27.2519	137.88	3.10043	17.0875	119.356	1.07759	-9.38313	91.0027	4.14015	-20.5859	130.47	-12.9677	33.0983	118.147	-10.0167	16.7009	100.082	-7.07618	-6.50006	165.516	10.3922	66.9281	178.466	7.07682	93.7855	172.966	41.6663	76.8878	
58	0.483333	168.172	64.9729	84.0377	140.038	86.4302	76.91	121.652	100.285	62.5178	99.6092	105.286	50.1999	153.59	36.9595	8.46152	137.602	34.1447	-18.6151	113.634	33.2418	-32.2335	146.335	11.5411	5.77519	121.45	9.79178	-22.5567	91.2255	23.641	-33.8345	137.33	-1.4057	14.7509	114.384	-4.83134	-10.1742	92.6381	5.06258	-21.8073	122.814	-14.3945	36.3539	110.334	-12.6412	17.3619	98.3031	-8.91	-5.38559	161.722	-3.33777	67.7991	177.063	-5.30614	98.2316	184.489	26.5699	73.1462	
59	0.491667	189.422	55.0488	78.79	166.463	82.6339	65.9999	147.799	90.9028	46.4327	131.804	103.778	36.5918	181.092	25.7856	2.08746	164.634	19.7862	-22.127	139.753	21.5089	-39.5897	166.146	-0.761494	-1.36613	147.287	0.600046	-29.1684	121.292	14.6688	-42.3232	152.964	-13.6753	11.1318	135.577	-13.1791	-16.436	114.199	-1.41356	-29.9056	136.556	-18.8966	34.0725	125.86	-18.286	13.2751	118.836	-10.6478	-9.78296	173.055	-10.4368	61.4568	185.247	-13.1799	97.475	200.737	12.8834	72.3138	
